<svg width="8" height="8" viewBox="0 0 8 8" fill="none" xmlns="http://www.w3.org/2000/svg">
<path d="M4.24866 0.488L5.28533 2.588L7.60333 2.92533C7.65453 2.93272 7.70264 2.95429 7.74221 2.98761C7.78178 3.02093 7.81123 3.06466 7.82722 3.11386C7.84322 3.16305 7.84512 3.21574 7.8327 3.26596C7.82029 3.31618 7.79406 3.36192 7.75699 3.398L6.07933 5.03133L6.47533 7.34C6.48406 7.39099 6.47836 7.44341 6.45886 7.49133C6.43936 7.53926 6.40685 7.58077 6.36499 7.61118C6.32314 7.64159 6.27361 7.65969 6.22201 7.66343C6.17041 7.66716 6.11879 7.65639 6.07299 7.63233L3.99999 6.544L1.92666 7.63333C1.88082 7.65729 1.8292 7.66796 1.77762 7.66416C1.72604 7.66035 1.67655 7.64221 1.63472 7.61179C1.5929 7.58136 1.5604 7.53986 1.54089 7.49195C1.52139 7.44405 1.51565 7.39165 1.52433 7.34067L1.92033 5.03333L0.24266 3.4C0.20559 3.36392 0.179363 3.31818 0.166951 3.26796C0.154539 3.21774 0.156437 3.16505 0.172431 3.11586C0.188425 3.06666 0.217875 3.02293 0.257445 2.98961C0.297016 2.95629 0.345126 2.93472 0.396327 2.92733L2.71433 2.58833L3.75099 0.488333C3.77393 0.441942 3.80937 0.402882 3.85331 0.375561C3.89726 0.34824 3.94797 0.333744 3.99972 0.33371C4.05147 0.333675 4.1022 0.348103 4.14619 0.375365C4.19017 0.402627 4.22567 0.441639 4.24866 0.488Z" fill="#FFC400"/>
</svg>
