<svg width="8" height="13" viewBox="0 0 8 13" fill="none" xmlns="http://www.w3.org/2000/svg">
<mask id="mask0" mask-type="alpha" maskUnits="userSpaceOnUse" x="0" y="0" width="8" height="13">
<path fill-rule="evenodd" clip-rule="evenodd" d="M7 1H6V0H2V1H1C0.4 1 0 1.4 0 2V12C0 12.6 0.4 13 1 13H7C7.6 13 8 12.6 8 12V2C8 1.4 7.6 1 7 1Z" fill="white"/>
</mask>
<g mask="url(#mask0)">
<path fill-rule="evenodd" clip-rule="evenodd" d="M0 10V13H8V10H0Z" fill="white"/>
<path fill-rule="evenodd" clip-rule="evenodd" d="M0 7V10H8V7H0Z" fill="white"/>
<path opacity="0.1" fill-rule="evenodd" clip-rule="evenodd" d="M0 4V7H8V4H0Z" fill="white"/>
<path opacity="0.1" fill-rule="evenodd" clip-rule="evenodd" d="M0 1V4H8V1H0Z" fill="white"/>
<path opacity="0.1" fill-rule="evenodd" clip-rule="evenodd" d="M2 0V1H6V0H2Z" fill="white"/>
</g>
</svg>
