<svg width="14" height="14" viewBox="0 0 14 14" fill="none" xmlns="http://www.w3.org/2000/svg">
<path fill-rule="evenodd" clip-rule="evenodd" d="M1.66666 6.99998C1.66666 4.05446 4.05448 1.66665 7 1.66665C9.94551 1.66665 12.3333 4.05446 12.3333 6.99998C12.3333 9.9455 9.94551 12.3333 7 12.3333C4.05448 12.3333 1.66666 9.9455 1.66666 6.99998ZM7 0.333313C3.3181 0.333313 0.333328 3.31808 0.333328 6.99998C0.333328 10.6819 3.3181 13.6666 7 13.6666C10.6819 13.6666 13.6667 10.6819 13.6667 6.99998C13.6667 3.31808 10.6819 0.333313 7 0.333313ZM9.65323 4.34677C9.91358 4.60712 9.91358 5.02923 9.65323 5.28958L7.94282 7L9.65323 8.71041C9.91358 8.97076 9.91358 9.39287 9.65323 9.65322C9.39288 9.91357 8.97077 9.91357 8.71042 9.65322L7.00001 7.9428L5.2896 9.65322C5.02925 9.91357 4.60714 9.91357 4.34679 9.65322C4.08644 9.39287 4.08644 8.97076 4.34679 8.71041L6.0572 6.99999L4.34679 5.28958C4.08644 5.02923 4.08644 4.60712 4.34679 4.34677C4.60714 4.08642 5.02925 4.08642 5.2896 4.34677L7.00001 6.05719L8.71042 4.34677C8.97077 4.08642 9.39288 4.08642 9.65323 4.34677Z" fill="#27272A"/>
</svg>
