<svg width="12" height="3" viewBox="0 0 12 3" fill="none" xmlns="http://www.w3.org/2000/svg">
<path fill-rule="evenodd" clip-rule="evenodd" d="M1.66667 2.33331C2.21896 2.33331 2.66667 1.8856 2.66667 1.33331C2.66667 0.781028 2.21896 0.333313 1.66667 0.333313C1.11439 0.333313 0.666672 0.781028 0.666672 1.33331C0.666672 1.8856 1.11439 2.33331 1.66667 2.33331ZM6.00001 2.33331C6.55229 2.33331 7.00001 1.8856 7.00001 1.33331C7.00001 0.781028 6.55229 0.333313 6.00001 0.333313C5.44772 0.333313 5.00001 0.781028 5.00001 1.33331C5.00001 1.8856 5.44772 2.33331 6.00001 2.33331ZM11.3333 1.33331C11.3333 1.8856 10.8856 2.33331 10.3333 2.33331C9.78105 2.33331 9.33334 1.8856 9.33334 1.33331C9.33334 0.781028 9.78105 0.333313 10.3333 0.333313C10.8856 0.333313 11.3333 0.781028 11.3333 1.33331Z" fill="#27272A"/>
</svg>
