<svg width="14" height="14" viewBox="0 0 14 14" fill="none" xmlns="http://www.w3.org/2000/svg">
<path fill-rule="evenodd" clip-rule="evenodd" d="M7 1.66668C4.05447 1.66668 1.66665 4.0545 1.66665 7.00003C1.66665 9.94556 4.05447 12.3334 7 12.3334C9.94553 12.3334 12.3333 9.94556 12.3333 7.00003C12.3333 4.0545 9.94553 1.66668 7 1.66668ZM0.333313 7.00003C0.333313 3.31812 3.31809 0.333344 7 0.333344C10.6819 0.333344 13.6667 3.31812 13.6667 7.00003C13.6667 10.6819 10.6819 13.6667 7 13.6667C3.31809 13.6667 0.333313 10.6819 0.333313 7.00003ZM7.00001 3.5714C6.52662 3.5714 6.14287 3.95516 6.14287 4.42855C6.14287 4.90194 6.52662 5.2857 7.00001 5.2857C7.4734 5.2857 7.85716 4.90194 7.85716 4.42855C7.85716 3.95516 7.4734 3.5714 7.00001 3.5714ZM6.33339 9.99997C6.33339 10.3682 6.63187 10.6666 7.00006 10.6666C7.36825 10.6666 7.66673 10.3682 7.66673 9.99997L7.66673 6.57139C7.66673 6.2032 7.36825 5.90472 7.00006 5.90472C6.63187 5.90472 6.33339 6.2032 6.33339 6.57139V9.99997Z" fill="#27272A"/>
</svg>
