<svg width="8" height="8" viewBox="0 0 8 8" fill="none" xmlns="http://www.w3.org/2000/svg">
<path d="M4.24867 0.488L5.28533 2.588L7.60333 2.92533C7.65454 2.93272 7.70265 2.95429 7.74222 2.98761C7.78179 3.02093 7.81124 3.06466 7.82723 3.11386C7.84322 3.16305 7.84512 3.21574 7.83271 3.26596C7.8203 3.31618 7.79407 3.36192 7.757 3.398L6.07934 5.03133L6.47534 7.34C6.48407 7.39099 6.47836 7.44341 6.45887 7.49133C6.43937 7.53926 6.40686 7.58077 6.365 7.61118C6.32315 7.64159 6.27362 7.65969 6.22202 7.66343C6.17042 7.66716 6.1188 7.65639 6.073 7.63233L4 6.544L1.92667 7.63333C1.88083 7.65729 1.82921 7.66796 1.77763 7.66416C1.72605 7.66035 1.67655 7.64221 1.63473 7.61179C1.5929 7.58136 1.56041 7.53986 1.5409 7.49195C1.5214 7.44405 1.51566 7.39165 1.52433 7.34067L1.92033 5.03333L0.242668 3.4C0.205597 3.36392 0.179371 3.31818 0.166959 3.26796C0.154547 3.21774 0.156445 3.16505 0.172439 3.11586C0.188432 3.06666 0.217882 3.02293 0.257453 2.98961C0.297024 2.95629 0.345134 2.93472 0.396334 2.92733L2.71433 2.58833L3.751 0.488333C3.77393 0.441942 3.80937 0.402882 3.85332 0.375561C3.89727 0.34824 3.94798 0.333744 3.99973 0.33371C4.05148 0.333675 4.10221 0.348103 4.1462 0.375365C4.19018 0.402627 4.22567 0.441639 4.24867 0.488Z" fill="#C4C4CF"/>
</svg>
