<svg width="10" height="10" viewBox="0 0 10 10" fill="none" xmlns="http://www.w3.org/2000/svg">
<path fill-rule="evenodd" clip-rule="evenodd" d="M9.47139 1.47138C9.73174 1.21103 9.73174 0.788925 9.47139 0.528575C9.21104 0.268226 8.78893 0.268226 8.52858 0.528575L4.99998 4.05717L1.47138 0.528575C1.21103 0.268226 0.788925 0.268226 0.528575 0.528575C0.268226 0.788925 0.268226 1.21103 0.528575 1.47138L4.05717 4.99998L0.528575 8.52858C0.268226 8.78893 0.268226 9.21104 0.528575 9.47139C0.788925 9.73174 1.21103 9.73174 1.47138 9.47139L4.99998 5.94279L8.52858 9.47139C8.78893 9.73174 9.21104 9.73174 9.47139 9.47139C9.73174 9.21104 9.73174 8.78893 9.47139 8.52858L5.94279 4.99998L9.47139 1.47138Z" fill="#27272A"/>
</svg>
