<svg width="16" height="12" viewBox="0 0 16 12" fill="none" xmlns="http://www.w3.org/2000/svg">
<mask id="mask0" mask-type="alpha" maskUnits="userSpaceOnUse" x="0" y="0" width="16" height="12">
<path fill-rule="evenodd" clip-rule="evenodd" d="M0 -6.10352e-05L8 11.9999L16 -6.10352e-05H0Z" fill="white"/>
</mask>
<g mask="url(#mask0)">
<path opacity="0.3" fill-rule="evenodd" clip-rule="evenodd" d="M8 0.00012207C1.4 0.00012207 -4 5.40012 -4 12.0001C-4 18.6001 1.4 24.0001 8 24.0001C14.6 24.0001 20 18.6001 20 12.0001C20 5.40012 14.6 0.00012207 8 0.00012207ZM8 21.0001C3 21.0001 -1 17.0001 -1 12.0001C-1 7.00012 3 3.00012 8 3.00012C13 3.00012 17 7.00012 17 12.0001C17 17.0001 13 21.0001 8 21.0001Z" fill="#27272A"/>
<path fill-rule="evenodd" clip-rule="evenodd" d="M8 3.00024C3 3.00024 -1 7.00024 -1 12.0002C-1 17.0002 3 21.0002 8 21.0002C13 21.0002 17 17.0002 17 12.0002C17 7.00024 13 3.00024 8 3.00024ZM8 18.0002C4.7 18.0002 2 15.3002 2 12.0002C2 8.70024 4.7 6.00024 8 6.00024C11.3 6.00024 14 8.70024 14 12.0002C14 15.3002 11.3 18.0002 8 18.0002Z" fill="#27272A"/>
<path fill-rule="evenodd" clip-rule="evenodd" d="M8 5.99988C4.7 5.99988 2 8.69988 2 11.9999C2 15.2999 4.7 17.9999 8 17.9999C11.3 17.9999 14 15.2999 14 11.9999C14 8.69988 11.3 5.99988 8 5.99988ZM8 14.9999C6.3 14.9999 5 13.6999 5 11.9999C5 10.2999 6.3 8.99988 8 8.99988C9.7 8.99988 11 10.2999 11 11.9999C11 13.6999 9.7 14.9999 8 14.9999Z" fill="#27272A"/>
<path fill-rule="evenodd" clip-rule="evenodd" d="M8 13.9999C9.65685 13.9999 11 12.6568 11 10.9999C11 9.34308 9.65685 7.99994 8 7.99994C6.34315 7.99994 5 9.34308 5 10.9999C5 12.6568 6.34315 13.9999 8 13.9999Z" fill="#27272A"/>
</g>
</svg>
