<svg width="16" height="12" viewBox="0 0 16 12" fill="none" xmlns="http://www.w3.org/2000/svg">
<mask id="mask0" mask-type="alpha" maskUnits="userSpaceOnUse" x="0" y="0" width="16" height="12">
<path fill-rule="evenodd" clip-rule="evenodd" d="M0 0L8 12L16 0H0Z" fill="white"/>
</mask>
<g mask="url(#mask0)">
<path opacity="0.1" fill-rule="evenodd" clip-rule="evenodd" d="M8 0.000305176C1.4 0.000305176 -4 5.40031 -4 12.0003C-4 18.6003 1.4 24.0003 8 24.0003C14.6 24.0003 20 18.6003 20 12.0003C20 5.40031 14.6 0.000305176 8 0.000305176ZM8 21.0003C3 21.0003 -1 17.0003 -1 12.0003C-1 7.00031 3 3.00031 8 3.00031C13 3.00031 17 7.00031 17 12.0003C17 17.0003 13 21.0003 8 21.0003Z" fill="white"/>
<path fill-rule="evenodd" clip-rule="evenodd" d="M8 3.00037C3 3.00037 -1 7.00037 -1 12.0004C-1 17.0004 3 21.0004 8 21.0004C13 21.0004 17 17.0004 17 12.0004C17 7.00037 13 3.00037 8 3.00037ZM8 18.0004C4.7 18.0004 2 15.3004 2 12.0004C2 8.70037 4.7 6.00037 8 6.00037C11.3 6.00037 14 8.70037 14 12.0004C14 15.3004 11.3 18.0004 8 18.0004Z" fill="white"/>
<path fill-rule="evenodd" clip-rule="evenodd" d="M8 5.99969C4.7 5.99969 2 8.69969 2 11.9997C2 15.2997 4.7 17.9997 8 17.9997C11.3 17.9997 14 15.2997 14 11.9997C14 8.69969 11.3 5.99969 8 5.99969ZM8 14.9997C6.3 14.9997 5 13.6997 5 11.9997C5 10.2997 6.3 8.99969 8 8.99969C9.7 8.99969 11 10.2997 11 11.9997C11 13.6997 9.7 14.9997 8 14.9997Z" fill="white"/>
<path fill-rule="evenodd" clip-rule="evenodd" d="M8 14C9.65685 14 11 12.6569 11 11C11 9.34315 9.65685 8 8 8C6.34315 8 5 9.34315 5 11C5 12.6569 6.34315 14 8 14Z" fill="white"/>
</g>
</svg>
